<?xml version="1.0" encoding="UTF-8"?>
<svg fill="#FFFFFF" width="100pt" height="100pt" version="1.1" viewBox="0 0 100 100" xmlns="http://www.w3.org/2000/svg">
 <g fill-rule="evenodd">
  <path d="m22.582 76.941m0.003907 0v0.003906-0.003906m0 0.003906h0.003906-0.003906m75.75 8.0547c-0.27734 0-0.5625-0.070312-0.82031-0.21875-2.3945-1.3594-8.6953-5.5938-15.555-15.5-2.8828-4.168-7.1406-6.9102-12.652-8.1484-7.9531-1.7852-16.461 0.23047-23.344 5.5234-18.105 13.926-23.574 14.164-25.223 13.062-0.76563-0.50781-0.97266-1.543-0.46094-2.3086 0.44531-0.66797 1.2891-0.91016 2.0078-0.625 0.51563 0.039063 5.0859-0.035156 21.645-12.77 7.6719-5.9023 17.188-8.1328 26.105-6.1328 6.3516 1.4258 11.289 4.625 14.664 9.5 6.4688 9.3477 12.266 13.254 14.461 14.5 0.79688 0.45703 1.0781 1.4766 0.625 2.2734-0.30859 0.54297-0.87109 0.84375-1.4531 0.84375"/>
  <path d="m1.6562 81.668c-0.57031 0-1.1211-0.29297-1.4336-0.81641-0.47266-0.78906-0.21094-1.8125 0.57812-2.2852 3.1602-1.8828 7.4531-5.1836 12.891-9.3633l0.23828-0.1875c7.6758-5.9023 17.191-8.1367 26.109-6.1328 1.6836 0.37891 3.293 0.89063 4.7773 1.5195 0.84375 0.35938 1.2422 1.3359 0.88281 2.1875-0.36328 0.84375-1.3398 1.2383-2.1875 0.87891-1.3008-0.55078-2.7148-1-4.207-1.3359-7.9453-1.7891-16.457 0.23047-23.34 5.5273l-0.24219 0.18359c-5.5234 4.25-9.8867 7.6055-13.215 9.5898-0.26953 0.15625-0.5625 0.23438-0.85156 0.23438"/>
  <path d="m33.586 62.164c2.1719 0 4.3281 0.24219 6.4531 0.71875 1.3438 0.30078 2.6406 0.6875 3.8633 1.1562l0.03125-0.023437c6.6445-5.1133 14.836-7.4961 22.719-6.6836 0.011718-0.22656 0.015625-0.44922 0.015625-0.66406 0-11.027-8.9727-20-20-20-11.027 0-20 8.9727-20 20 0 2.0586 0.32422 4.0977 0.97266 6.0898 1.9883-0.39453 3.9766-0.59375 5.9453-0.59375m10.578 5.4375c-0.22266 0-0.44141-0.042968-0.65234-0.13281-1.3047-0.55078-2.7188-1-4.2031-1.3359-4.0234-0.90234-8.1719-0.83984-12.332 0.1875-0.80078 0.19922-1.6367-0.22656-1.9453-0.99609-1.1289-2.8008-1.6992-5.7109-1.6992-8.6562 0-12.867 10.469-23.336 23.336-23.336 12.863 0 23.332 10.469 23.332 23.336 0 0.83984-0.058594 1.7383-0.17578 2.7422-0.050781 0.45312-0.28516 0.86719-0.65234 1.1406-0.36328 0.26953-0.82812 0.38672-1.2773 0.3125-7.5156-1.25-15.512 0.85938-21.93 5.793l-0.78906 0.60547c-0.29688 0.22266-0.65234 0.33984-1.0117 0.33984"/>
  <path d="m46.668 36.668c-0.92188 0-1.668-0.74609-1.668-1.668v-10c0-0.92188 0.74609-1.668 1.668-1.668 0.91797 0 1.6641 0.74609 1.6641 1.668v10c0 0.92188-0.74609 1.668-1.6641 1.668"/>
  <path d="m25 58.332h-10c-0.92188 0-1.668-0.74609-1.668-1.6641 0-0.92188 0.74609-1.668 1.668-1.668h10c0.92188 0 1.668 0.74609 1.668 1.668 0 0.91797-0.74609 1.6641-1.668 1.6641"/>
  <path d="m78.332 58.332h-10c-0.91797 0-1.6641-0.74609-1.6641-1.6641 0-0.92188 0.74609-1.668 1.6641-1.668h10c0.92188 0 1.668 0.74609 1.668 1.668 0 0.91797-0.74609 1.6641-1.668 1.6641"/>
  <path d="m86.668 58.332h-1.668c-0.92188 0-1.668-0.74609-1.668-1.6641 0-0.92188 0.74609-1.668 1.668-1.668h1.668c0.91797 0 1.6641 0.74609 1.6641 1.668 0 0.91797-0.74609 1.6641-1.6641 1.6641"/>
  <path d="m8.332 58.332h-1.6641c-0.92188 0-1.668-0.74609-1.668-1.6641 0-0.92188 0.74609-1.668 1.668-1.668h1.6641c0.92188 0 1.668 0.74609 1.668 1.668 0 0.91797-0.74609 1.6641-1.668 1.6641"/>
  <path d="m61.988 43.012c-0.42578 0-0.85547-0.16406-1.1797-0.48828-0.65234-0.65234-0.65234-1.7031 0-2.3555l4.7148-4.7148c0.65234-0.65234 1.707-0.65234 2.3555 0 0.65234 0.65234 0.65234 1.707 0 2.3555l-4.7148 4.7148c-0.32422 0.32422-0.75 0.48828-1.1758 0.48828"/>
  <path d="m71.668 33.332c-0.42969 0-0.85547-0.16016-1.1797-0.48828-0.65234-0.65234-0.65234-1.7031 0-2.3555l3.332-3.332c0.65234-0.65234 1.707-0.65234 2.3594 0 0.64844 0.65234 0.64844 1.7031 0 2.3555l-3.3359 3.332c-0.32422 0.32812-0.75 0.48828-1.1758 0.48828"/>
  <path d="m31.348 43.012c-0.42969 0-0.85547-0.16406-1.1797-0.48828l-4.7148-4.7148c-0.65234-0.64844-0.65234-1.7031 0-2.3555s1.707-0.65234 2.3555 0l4.7148 4.7148c0.65234 0.65234 0.65234 1.7031 0 2.3555-0.32422 0.32422-0.75 0.48828-1.1758 0.48828"/>
  <path d="m21.668 33.332c-0.42969 0-0.85547-0.16016-1.1797-0.48828l-3.332-3.332c-0.65234-0.65234-0.65234-1.7031 0-2.3555s1.7031-0.65234 2.3555 0l3.332 3.332c0.65234 0.65234 0.65234 1.7031 0 2.3555-0.32422 0.32812-0.75 0.48828-1.1758 0.48828"/>
  <path d="m46.668 20c-0.92188 0-1.668-0.74609-1.668-1.668v-1.6641c0-0.92188 0.74609-1.668 1.668-1.668 0.91797 0 1.6641 0.74609 1.6641 1.668v1.6641c0 0.92188-0.74609 1.668-1.6641 1.668"/>
  <path d="m65 66.668h-3.332c-0.92188 0-1.668-0.74609-1.668-1.668s0.74609-1.668 1.668-1.668h3.332c0.92188 0 1.668 0.74609 1.668 1.668s-0.74609 1.668-1.668 1.668"/>
  <path d="m56.668 71.668h-3.3359c-0.91797 0-1.6641-0.74609-1.6641-1.668s0.74609-1.668 1.6641-1.668h3.3359c0.91797 0 1.6641 0.74609 1.6641 1.668s-0.74609 1.668-1.6641 1.668"/>
  <path d="m73.332 71.668h-3.332c-0.92188 0-1.668-0.74609-1.668-1.668s0.74609-1.668 1.668-1.668h3.332c0.92188 0 1.668 0.74609 1.668 1.668s-0.74609 1.668-1.668 1.668"/>
  <path d="m81.668 76.668h-3.3359c-0.91797 0-1.6641-0.74609-1.6641-1.668s0.74609-1.668 1.6641-1.668h3.3359c0.91797 0 1.6641 0.74609 1.6641 1.668s-0.74609 1.668-1.6641 1.668"/>
  <path d="m65 76.668h-3.332c-0.92188 0-1.668-0.74609-1.668-1.668s0.74609-1.668 1.668-1.668h3.332c0.92188 0 1.668 0.74609 1.668 1.668s-0.74609 1.668-1.668 1.668"/>
  <path d="m48.332 76.668h-3.332c-0.92188 0-1.668-0.74609-1.668-1.668s0.74609-1.668 1.668-1.668h3.332c0.92188 0 1.668 0.74609 1.668 1.668s-0.74609 1.668-1.668 1.668"/>
 </g>
</svg>
