<?xml version="1.0" encoding="utf-8"?>
<!-- Generator: Adobe Illustrator 21.0.0, SVG Export Plug-In . SVG Version: 6.00 Build 0)  -->
<svg version="1.1" id="Ebene_1" xmlns="http://www.w3.org/2000/svg" xmlns:xlink="http://www.w3.org/1999/xlink" x="0px" y="0px"
	 viewBox="0 0 60 100" style="enable-background:new 0 0 60 100;" xml:space="preserve">
<style type="text/css">
	.st0{fill:#FFFFFF;}
</style>
<path class="st0" d="M47.3,1H12.7C7.8,1,4,4.7,4,9.6v80.7C4,95,7.8,99,12.7,99h34.7c4.9,0,8.7-4,8.7-8.6V9.6C56,4.8,52.2,1,47.3,1z
	 M30,96.1c-3.2,0-5.8-2.6-5.8-5.8c0-3.2,2.6-5.8,5.8-5.8s5.8,2.6,5.8,5.8C35.8,93.5,33.2,96.1,30,96.1z M50.2,81.7H9.8V15.4h40.4
	L50.2,81.7z"/>
</svg>
