<?xml version="1.0" encoding="UTF-8"?>
<svg width="35px" height="40px" viewBox="0 0 35 40" version="1.1" xmlns="http://www.w3.org/2000/svg" xmlns:xlink="http://www.w3.org/1999/xlink">
    <!-- Generator: Sketch 45 (43475) - http://www.bohemiancoding.com/sketch -->
    <title>picto/character</title>
    <desc>Created with Sketch.</desc>
    <defs>
        <path d="M14.4079917,15.1731872 C15.9432951,12.8278271 18.9561702,12.7921062 20.6447475,15.1731872 C23.2128234,25.3670399 28.7158432,35.3488426 28.7158432,35.3488426 C28.7158432,35.3488426 23.3962574,37.3333333 18.0766716,37.3333333 C12.7570858,37.3333333 7.4375,35.3488426 7.4375,35.3488426 C7.4375,35.3488426 12.9405198,24.1033954 14.4079917,15.1731872 Z" id="path-1"></path>
    </defs>
    <g id="Symbols" stroke="none" stroke-width="1" fill="none" fill-rule="evenodd">
        <g id="picto/character">
            <g id="Rectangle-6">
                <use fill="#EDEDED" fill-rule="evenodd" xlink:href="#path-1"></use>
                <path stroke="#979797" stroke-width="1" d="M14.8834973,15.361998 C14.6409364,16.8097563 14.2870403,18.3656851 13.8329943,20.0148897 C13.23008,22.2048198 12.4626097,24.5175645 11.5688887,26.8996355 C10.7638379,29.04537 9.90155617,31.1291654 9.03919851,33.0701457 C8.7372757,33.7497085 8.45682777,34.3630496 8.2050022,34.900027 C8.17851983,34.9564964 8.1533503,35.0100091 8.12953185,35.060511 C8.24103673,35.0976643 8.36612148,35.1385579 8.50408809,35.1826741 C9.22134763,35.4120252 10.0212985,35.6415825 10.8829163,35.855869 C13.3401093,36.4669788 15.7952159,36.8333333 18.0766716,36.8333333 C20.3581273,36.8333333 22.8132339,36.4669788 25.2704269,35.855869 C26.1320446,35.6415825 26.9319955,35.4120252 27.6492551,35.1826741 C27.7766836,35.1419275 27.893123,35.1039301 27.9980232,35.0690897 C27.9586941,34.9947424 27.9162171,34.9140964 27.8707108,34.8272887 C27.5487727,34.2131603 27.1902653,33.5085958 26.8043241,32.7241475 C25.7021082,30.483829 24.6000345,28.0509969 23.5711796,25.5098061 C22.1619237,22.0290545 21.0038858,18.6226754 20.1834936,15.388675 C18.7180008,13.4066618 16.229823,13.4117338 14.8834973,15.361998 Z"></path>
            </g>
            <ellipse id="Oval-3" stroke="#979797" fill="#D8D8D8" cx="17.6674727" cy="11.9075468" rx="7.36558033" ry="7.38167996"></ellipse>
        </g>
    </g>
</svg>