<?xml version="1.0" encoding="UTF-8"?>
<svg width="40px" height="45px" viewBox="0 0 40 45" version="1.1" xmlns="http://www.w3.org/2000/svg" xmlns:xlink="http://www.w3.org/1999/xlink">
    <!-- Generator: Sketch 44.1 (41455) - http://www.bohemiancoding.com/sketch -->
    <title>picto/character-hover</title>
    <desc>Created with Sketch.</desc>
    <defs>
        <path d="M16.4662763,17.0698356 C18.2209087,14.4313054 21.6641945,14.3911194 23.5939971,17.0698356 C26.528941,28.5379199 32.8181065,39.767448 32.8181065,39.767448 C32.8181065,39.767448 26.7385799,42 20.6590532,42 C14.5795266,42 8.5,39.767448 8.5,39.767448 C8.5,39.767448 14.7891655,27.1163198 16.4662763,17.0698356 Z" id="path-1"></path>
    </defs>
    <g id="Symbols" stroke="none" stroke-width="1" fill="none" fill-rule="evenodd">
        <g id="picto/character-hover">
            <g id="Rectangle-6">
                <use fill="#D1D1D1" fill-rule="evenodd" xlink:href="#path-1"></use>
                <path stroke="#979797" stroke-width="1" d="M16.9411722,17.2607098 C16.6642441,18.8909746 16.2594748,20.6437661 15.7397275,22.502116 C15.0511796,24.9640104 14.1746077,27.5642555 13.153789,30.2425719 C12.2341671,32.655379 11.2491399,34.9986077 10.2640362,37.1812182 C9.91915093,37.9453511 9.59880745,38.6349972 9.31117508,39.2387435 C9.27012561,39.3249072 9.23184079,39.4049424 9.19642987,39.4786963 C9.34105995,39.5265115 9.50770542,39.5803866 9.69503952,39.6393527 C10.5163156,39.8978608 11.4321655,40.1565705 12.4186012,40.3980662 C15.2325276,41.0869616 18.0444194,41.5 20.6590532,41.5 C23.2736871,41.5 26.0855789,41.0869616 28.8995053,40.3980662 C29.8859409,40.1565705 30.8017909,39.8978608 31.623067,39.6393527 C31.7990967,39.5839448 31.9568593,39.533032 32.095254,39.4874183 C32.0414208,39.3874783 31.9819226,39.2764245 31.9170233,39.1545573 C31.5493284,38.4641028 31.1398393,37.6719196 30.6989972,36.7898827 C29.4399273,34.2707357 28.1810007,31.5350733 27.0057397,28.6776272 C25.3944642,24.7600862 24.0707723,20.9265168 23.1337155,17.2877057 C21.4283644,15.0064462 18.507985,15.0129464 16.9411722,17.2607098 Z"></path>
            </g>
            <ellipse id="Oval-3" stroke="#979797" fill="#D1D1D1" cx="20.1913974" cy="13.3959902" rx="8.41780609" ry="8.30438995"></ellipse>
        </g>
    </g>
</svg>