<?xml version="1.0" encoding="UTF-8"?>
<svg width="35px" height="40px" viewBox="0 0 35 40" version="1.1" xmlns="http://www.w3.org/2000/svg" xmlns:xlink="http://www.w3.org/1999/xlink">
    <!-- Generator: Sketch 45 (43475) - http://www.bohemiancoding.com/sketch -->
    <title>picto/smartphone-hover</title>
    <desc>Created with Sketch.</desc>
    <defs>
        <path d="M7,5.66738082 C7,4.01013215 8.33545012,2.66666667 9.99575846,2.66666667 L25.8792415,2.66666667 C27.5337533,2.66666667 28.875,4.00439951 28.875,5.66738082 L28.875,34.3326192 C28.875,35.9898678 27.5395499,37.3333333 25.8792415,37.3333333 L9.99575846,37.3333333 C8.34124675,37.3333333 7,35.9956005 7,34.3326192 L7,5.66738082 Z M10.5,8.22716881 L10.5,28.2172756 C10.5,29.325196 11.3981655,30.2222222 12.5061087,30.2222222 L23.3688913,30.2222222 C24.4890476,30.2222222 25.375,29.3245771 25.375,28.2172756 L25.375,8.22716881 C25.375,7.11924845 24.4768345,6.22222222 23.3688913,6.22222222 L12.5061087,6.22222222 C11.3859524,6.22222222 10.5,7.11986739 10.5,8.22716881 Z M18.1664087,34.6666667 C18.8912824,34.6666667 19.4789087,34.069713 19.4789087,33.3333333 C19.4789087,32.5969537 18.8912824,32 18.1664087,32 C17.4415349,32 16.8539087,32.5969537 16.8539087,33.3333333 C16.8539087,34.069713 17.4415349,34.6666667 18.1664087,34.6666667 Z" id="path-1"></path>
    </defs>
    <g id="Symbols" stroke="none" stroke-width="1" fill="none" fill-rule="evenodd">
        <g id="picto/smartphone-hover">
            <g id="Combined-Shape">
                <use fill="#D1D1D1" fill-rule="evenodd" xlink:href="#path-1"></use>
                <path stroke="#979797" stroke-width="1" d="M7.5,5.66738082 L7.5,34.3326192 C7.5,35.7175154 8.6154471,36.8333333 9.99575846,36.8333333 L25.8792415,36.8333333 C27.2610703,36.8333333 28.375,35.7160676 28.375,34.3326192 L28.375,5.66738082 C28.375,4.28248458 27.2595529,3.16666667 25.8792415,3.16666667 L9.99575846,3.16666667 C8.61392974,3.16666667 7.5,4.2839324 7.5,5.66738082 Z M10,8.22716881 C10,6.83989759 11.1136204,5.72222222 12.5061087,5.72222222 L23.3688913,5.72222222 C24.7531022,5.72222222 25.875,6.84323107 25.875,8.22716881 L25.875,28.2172756 C25.875,29.6045469 24.7613796,30.7222222 23.3688913,30.7222222 L12.5061087,30.7222222 C11.1218978,30.7222222 10,29.6012134 10,28.2172756 L10,8.22716881 Z M18.1664087,35.1666667 C17.1636147,35.1666667 16.3539087,34.3441082 16.3539087,33.3333333 C16.3539087,32.3225585 17.1636147,31.5 18.1664087,31.5 C19.1692027,31.5 19.9789087,32.3225585 19.9789087,33.3333333 C19.9789087,34.3441082 19.1692027,35.1666667 18.1664087,35.1666667 Z"></path>
            </g>
        </g>
    </g>
</svg>