<?xml version="1.0" encoding="UTF-8"?>
<svg width="40px" height="45px" viewBox="0 0 40 45" version="1.1" xmlns="http://www.w3.org/2000/svg" xmlns:xlink="http://www.w3.org/1999/xlink">
    <!-- Generator: Sketch 44.1 (41455) - http://www.bohemiancoding.com/sketch -->
    <title>picto/smartphone-active</title>
    <desc>Created with Sketch.</desc>
    <defs>
        <path d="M8,5.99550699 C8,4.34113416 9.34410858,3 10.9907522,3 L30.0092478,3 C31.6609946,3 33,4.34246828 33,5.99550699 L33,39.004493 C33,40.6588658 31.6558914,42 30.0092478,42 L10.9907522,42 C9.33900538,42 8,40.6575317 8,39.004493 L8,5.99550699 Z M12,9.00732994 L12,31.9926701 C12,33.1016617 12.895478,34 14.0001062,34 L26.9998938,34 C28.1099416,34 29,33.1012878 29,31.9926701 L29,9.00732994 C29,7.89833832 28.104522,7 26.9998938,7 L14.0001062,7 C12.8900584,7 12,7.89871223 12,9.00732994 Z M20.7616099,39 C21.590037,39 22.2616099,38.3284271 22.2616099,37.5 C22.2616099,36.6715729 21.590037,36 20.7616099,36 C19.9331828,36 19.2616099,36.6715729 19.2616099,37.5 C19.2616099,38.3284271 19.9331828,39 20.7616099,39 Z" id="path-1"></path>
    </defs>
    <g id="Symbols" stroke="none" stroke-width="1" fill="none" fill-rule="evenodd">
        <g id="picto/smartphone-active">
            <g id="Combined-Shape">
                <use fill="#9B9B9B" fill-rule="evenodd" xlink:href="#path-1"></use>
                <path stroke="#979797" stroke-width="1" d="M8.5,5.99550699 L8.5,39.004493 C8.5,40.3820621 9.61582011,41.5 10.9907522,41.5 L30.0092478,41.5 C31.3814656,41.5 32.5,40.3810062 32.5,39.004493 L32.5,5.99550699 C32.5,4.61793787 31.3841799,3.5 30.0092478,3.5 L10.9907522,3.5 C9.61853443,3.5 8.5,4.61899381 8.5,5.99550699 Z M11.5,9.00732994 C11.5,7.62129913 12.6151728,6.5 14.0001062,6.5 L26.9998938,6.5 C28.3811829,6.5 29.5,7.62271345 29.5,9.00732994 L29.5,31.9926701 C29.5,33.3787009 28.3848272,34.5 26.9998938,34.5 L14.0001062,34.5 C12.6188171,34.5 11.5,33.3772865 11.5,31.9926701 L11.5,9.00732994 Z M20.7616099,39.5 C19.6570404,39.5 18.7616099,38.6045695 18.7616099,37.5 C18.7616099,36.3954305 19.6570404,35.5 20.7616099,35.5 C21.8661794,35.5 22.7616099,36.3954305 22.7616099,37.5 C22.7616099,38.6045695 21.8661794,39.5 20.7616099,39.5 Z"></path>
            </g>
        </g>
    </g>
</svg>