<!-- Generator: Adobe Illustrator 21.0.2, SVG Export Plug-In  -->
<svg version="1.1"
	 xmlns="http://www.w3.org/2000/svg" xmlns:xlink="http://www.w3.org/1999/xlink" xmlns:a="http://ns.adobe.com/AdobeSVGViewerExtensions/3.0/"
	 x="0px" y="0px" width="52px" height="52px" viewBox="0 0 52 52" style="enable-background:new 0 0 52 52;" xml:space="preserve">
<style type="text/css">
	.st0{fill:#FFFFFF;}
</style>
<defs>
</defs>
<path class="st0" d="M26,36c-5.5,0-10-4.5-10-10s4.5-10,10-10c5.5,0,10,4.5,10,10S31.5,36,26,36z M29.6,52l1.8-6.3
	c1.6-0.5,3.2-1.1,4.7-1.9l5.7,3.2l5.1-5.1l-3.2-5.7c0.8-1.4,1.5-3,1.9-4.7l6.3-1.8v-7.2l-6.3-1.8c-0.5-1.6-1.1-3.2-1.9-4.7l3.2-5.7
	l-5.1-5.1l-5.7,3.2c-1.4-0.8-3-1.5-4.7-1.9L29.6,0h-7.2l-1.8,6.3c-1.6,0.5-3.2,1.1-4.7,1.9l-5.7-3.2l-5.1,5.1l3.2,5.7
	c-0.8,1.4-1.5,3-1.9,4.7L0,22.4v7.2l6.3,1.8c0.5,1.6,1.1,3.2,1.9,4.7l-3.2,5.7l5.1,5.1l5.7-3.2c1.4,0.8,3,1.5,4.7,1.9l1.8,6.3H29.6z
	"/>
</svg>
