<svg xmlns="http://www.w3.org/2000/svg" xmlns:xlink="http://www.w3.org/1999/xlink" version="1.1" x="0px" y="0px" viewBox="0 0 100 100" enable-background="new 0 0 100 100" xml:space="preserve"><g><g><path d="M54.356,90.89l-0.238-0.11c-0.938-0.442-1.639-0.871-2.414-0.871c-0.174,0.308-0.777,0.471-1.234,0.266    c0.004,0.012,0.008,0.031,0.012,0.045c-0.055,0.057-0.119,0.115-0.15,0.17c-0.309,0.524-0.479,1.396-0.16,2.16    c0.191,0.461,0.645,1.071,1.703,1.342c1.229,0.308,3.396,0.259,4.445,0.007c0.244-0.059,0.988-0.237,0.977-0.873    C57.284,92.245,56.249,91.741,54.356,90.89z"></path></g><g><path d="M50.496,90.48l-0.146-0.085l-0.003-0.169c-0.01-0.571-0.174-1.465-0.347-2.411c-0.337-1.847-0.72-3.939-0.269-5.064    l0.073-0.184l0.197-0.005c1.727-0.046,2.792-0.397,2.803-0.401l0.398-0.134l-0.003,0.42c0,0.041-0.034,4.04-0.927,7.398    l-0.2,0.531c-0.263,0.216-0.544,0.325-0.835,0.325C50.998,90.702,50.748,90.628,50.496,90.48z M52.593,82.842    c-0.453,0.11-1.269,0.269-2.364,0.313c-0.281,1.027,0.074,2.972,0.363,4.552c0.161,0.881,0.313,1.717,0.349,2.327    c0.25,0.109,0.455,0.091,0.677-0.063C52.394,87.243,52.558,83.964,52.593,82.842z"></path></g><g><defs><path id="d" d="M48.001,83.488c0.057,0.266,6.609,0.025,6.74,0.025c0.006,0,3.107-14.514,3.1-14.575     c-0.039-0.369-13.326-0.687-13.326,0.626C44.515,74.644,46.647,77.188,48.001,83.488z"></path></defs><clipPath><use xlink:href="#d" overflow="visible"></use></clipPath></g><g><defs><path id="c" d="M48.179,55.762c-0.92,0.025-1.592-0.005-2.031-0.07c-0.02,0.216-0.383,5.358,2.912,12.433     c-0.668,0.824-0.424,2.405,0.625,3.897c1.023,1.46,2.605,2.559,3.643,1.829c0.824-0.577,0.682-1.869,0.072-3.109     c0.506-0.19,0.932-0.685,0.98-1.134c0.023-0.222-0.039-0.429-0.18-0.582c-1.467-1.604-2.967-2.155-4.178-1.626"></path></defs><clipPath><use xlink:href="#c" overflow="visible"></use></clipPath></g><path d="M45.55,55.641c0.189,0.037,0.388,0.073,0.594,0.107c-0.038,0.546-0.26,5.557,2.916,12.376   c-0.668,0.824-0.424,2.405,0.625,3.897c0.8,1.141,1.94,2.061,2.896,2.061c0.268,0,0.521-0.072,0.747-0.231   c0.824-0.577,0.682-1.869,0.072-3.109c0.506-0.19,0.932-0.685,0.98-1.134c0.023-0.222-0.039-0.429-0.18-0.582   c-1.106-1.21-2.231-1.821-3.237-1.821c-0.328,0-0.643,0.065-0.94,0.195c-2.531-5.611-2.089-10.1-1.879-11.428   c0.199,0.012,0.401,0.02,0.604,0.024c-0.223,1.326-0.623,5.426,1.608,10.67c0.197-0.041,0.4-0.062,0.606-0.062   c1.202,0,2.475,0.697,3.68,2.016c0.257,0.28,0.376,0.653,0.334,1.051c-0.053,0.488-0.368,0.982-0.811,1.321   c0.584,1.485,0.411,2.716-0.495,3.35c-0.32,0.226-0.688,0.341-1.091,0.341c-1.3,0-2.602-1.197-3.387-2.316   c-1.089-1.55-1.392-3.213-0.817-4.292C45.128,60.93,45.543,55.721,45.55,55.641z"></path><path d="M43.171,55.313l1.217-9.354c0.19,0.078,0.383,0.15,0.576,0.22l-1.137,8.736l0.696,0.257l-0.851,13.9   c-0.013,0.125,0.014,0.254,0.071,0.346c0.042,0.067,0.087,0.092,0.112,0.092h4.542c0.047,0.822,0.397,1.769,1.041,2.685   c0.741,1.058,1.956,2.188,3.141,2.188c0.34,0,0.649-0.096,0.92-0.286c0.825-0.578,0.93-1.768,0.295-3.215   c0.472-0.282,0.832-0.774,0.883-1.241c0.005-0.046-0.012-0.086-0.012-0.13h3.306c0.025,0,0.07-0.024,0.115-0.096   c0.056-0.087,0.081-0.215,0.068-0.396c0.004-0.048,0.381-4.846,0.021-10.939c-0.151-2.548-1.311-9.086-1.854-12.055   c0.188-0.075,0.385-0.137,0.57-0.218c0.538,2.922,1.726,9.587,1.884,12.238c0.361,6.134-0.018,10.969-0.022,10.969   c0.026,0.262-0.033,0.526-0.159,0.723c-0.146,0.234-0.378,0.375-0.622,0.375H57.6c-0.727,3.454-2.854,13.404-2.858,13.404   c-0.131,0-6.684,0.24-6.74-0.025c-1.304-6.066-3.319-8.661-3.468-13.379h-0.677c-0.244,0-0.477-0.141-0.621-0.373   c-0.128-0.202-0.186-0.467-0.161-0.713l0.822-13.443L43.171,55.313z"></path><path d="M44.956,46.177c-0.411,2.561-1.159,7.483-1.166,8.72c0.758,0.241,2.943,0.806,5.289,0.806c0.579,0,1.135-0.034,1.656-0.103   c0.178-1.592-0.173-5.912-0.407-8.443c0.037,0,0.073,0.006,0.11,0.006c0.166,0,0.326-0.021,0.491-0.026   c0.25,2.687,0.622,7.329,0.367,8.781l-0.038,0.213l-0.213,0.032c-0.613,0.093-1.275,0.14-1.967,0.14   c-2.63,0-5.045-0.671-5.684-0.906l-0.174-0.063l-0.021-0.184c-0.115-0.998,0.858-7.181,1.183-9.19   C44.573,46.035,44.765,46.106,44.956,46.177z"></path><g><defs><path id="b" d="M33.653,29.808c0-9.571,7.47-17.356,16.654-17.356c9.183,0,16.655,7.787,16.655,17.356     c0,9.569-7.471,17.354-16.655,17.354S33.65,39.376,33.653,29.808z"></path></defs><clipPath><use xlink:href="#b" overflow="visible"></use></clipPath></g><g><g><g><g><circle fill="#000000" cx="53.163" cy="35.743" r="0.949"></circle></g></g></g></g><g><g><g><g><path fill="#000000" d="M64.466,39.01c0.072-0.127,0.044-0.306-0.06-0.393c-0.104-0.09-0.218-0.036-0.32,0.073       c-0.467,0.482-3.518,1.123-4.421-0.059c-0.09-0.113-0.233-0.12-0.326-0.012c-0.093,0.108-0.059,0.266-0.012,0.403       c0.134,0.391,0.802,1.572,2.479,1.572C63.357,40.593,64.18,39.911,64.466,39.01z"></path></g></g></g></g><g><defs><path id="a" d="M58.699,30.652c7.972,0.41,10.146-4.658,10.146-4.658s0.752-7.874-6.216-14.297     c-6.969-6.424-13.083-5.999-16.527-5.61c-3.662,0.414-8.03,3.273-9.035,6.9c0,0-4.619-0.536-5.845,5.75     c-0.766,5.547,3.652,21.096,3.239,21.855c2.009-0.583,7.019-5.179,8.777-7.016C46.352,30.328,50.728,30.245,58.699,30.652z"></path></defs><clipPath><use xlink:href="#a" overflow="visible"></use></clipPath></g><path d="M62.629,11.697c-6.969-6.424-13.083-5.999-16.527-5.61c-3.662,0.414-8.03,3.273-9.035,6.9c0,0-4.619-0.536-5.845,5.75   c-0.766,5.547,3.652,21.096,3.239,21.855c1.204-0.35,3.485-2.142,5.5-3.917c-0.047,0.002-0.092,0.016-0.14,0.016   c-2.043,0-3.698-1.88-3.698-4.2s1.655-4.199,3.698-4.199c2.042,0,3.697,1.879,3.697,4.199c0,0.311-0.034,0.612-0.091,0.904   c3.102-3.064,7.457-3.144,15.271-2.744c7.972,0.41,10.141-2.939,10.141-2.939S69.597,18.121,62.629,11.697z"></path><path d="M50.308,47.462c-4.524,0-8.782-1.84-11.989-5.181c-3.203-3.338-4.967-7.768-4.965-12.473   c0-9.735,7.605-17.656,16.954-17.656c9.35,0,16.955,7.92,16.955,17.656C67.263,39.542,59.657,47.462,50.308,47.462z M50.308,12.751   c-9.018,0-16.354,7.651-16.354,17.056c-0.001,4.55,1.703,8.832,4.799,12.058c3.092,3.222,7.196,4.997,11.556,4.997   c9.019,0,16.355-7.651,16.355-17.055C66.663,20.403,59.326,12.751,50.308,12.751z"></path></g></svg>