<svg xmlns="http://www.w3.org/2000/svg" xmlns:xlink="http://www.w3.org/1999/xlink" version="1.1" x="0px" y="0px" viewBox="0 0 100 100" enable-background="new 0 0 100 100" xml:space="preserve"><g><g><path d="M60.909,91.271l-0.205-0.162c-0.811-0.649-1.717-1.332-2.469-1.514c-0.242,0.262-0.543,0.382-0.941,0.076    c0.002,0.012,0.002,0.03,0.002,0.044c-0.066,0.043-0.141,0.085-0.186,0.13c-0.422,0.44-0.791,1.247-0.658,2.066    c0.078,0.492,0.377,1.19,1.344,1.699c1.123,0.586,3.242,1.043,4.32,1.043c0.252,0,1.018,0,1.154-0.622    C63.44,93.272,62.552,92.54,60.909,91.271z"></path></g><g><path d="M35.29,94.032c0.137,0.622,0.902,0.622,1.154,0.622c1.078,0,3.197-0.457,4.318-1.043c0.969-0.509,1.268-1.207,1.346-1.699    c0.133-0.819-0.236-1.626-0.658-2.066c-0.045-0.045-0.119-0.087-0.186-0.13c0-0.014,0-0.032,0.002-0.044    c-0.398,0.306-0.699,0.186-0.941-0.076c-0.752,0.182-1.658,0.864-2.469,1.514l-0.205,0.162    C36.009,92.54,35.12,93.272,35.29,94.032z"></path></g><path d="M57.744,90.152L57.744,90.152c-0.21,0-0.423-0.081-0.633-0.242l-0.115-0.089l-0.002-0.146   c-0.049-3.836-0.22-6.487-0.469-7.272l-0.119-0.377l0.395-0.014c1.286-0.045,2.079-0.388,2.087-0.392l0.423-0.187l-0.002,0.462   c0,0.043-0.028,4.308-0.773,7.721v0.096l-0.08,0.087C58.238,90.034,57.999,90.152,57.744,90.152z M57.592,89.509   c0.056,0.029,0.107,0.044,0.152,0.044l0,0c0.026,0,0.099,0,0.214-0.104c0.588-2.718,0.716-5.979,0.743-7.128   c-0.333,0.099-0.85,0.22-1.513,0.271C57.472,84.031,57.563,87.408,57.592,89.509z"></path><path d="M40.816,90.152c-0.255,0-0.494-0.118-0.711-0.353l-0.08-0.087v-0.096c-0.747-3.413-0.773-7.678-0.773-7.721l-0.002-0.462   l0.423,0.187c0.008,0.004,0.801,0.347,2.087,0.392l0.395,0.014l-0.119,0.377c-0.249,0.785-0.42,3.437-0.469,7.272l-0.002,0.146   l-0.115,0.089C41.239,90.071,41.026,90.152,40.816,90.152z M40.603,89.448c0.115,0.104,0.188,0.104,0.214,0.104   c0.045,0,0.097-0.015,0.152-0.044c0.029-2.101,0.12-5.478,0.403-6.917c-0.663-0.052-1.18-0.173-1.513-0.271   C39.886,83.471,40.014,86.731,40.603,89.448z"></path><path d="M31.861,65.902c1.065-5.258,3.494-8.456,4.67-9.757l-0.521-0.318c-1.232,1.383-3.746,4.757-4.792,10.236l-0.056,0.292   l0.291,0.059c1.175,0.239,1.995,1.506,2.248,3.479c0.017,0.117-0.025,0.238-0.114,0.341c-0.217,0.246-0.753,0.377-1.156,0.272   l-0.319-0.081l-0.051,0.325c-0.172,1.088-0.669,2.251-1.552,2.251c-1.059,0-1.63-1.696-1.63-3.292c0-1.668,0.621-3.008,1.51-3.258   L30.57,66.4l0.032-0.186c1.068-5.986,3.293-9.713,4.247-11.097l-0.512-0.313c-0.993,1.451-3.206,5.202-4.294,11.13   c-1.063,0.431-1.765,1.912-1.765,3.773c0,1.874,0.697,3.892,2.229,3.892c1.008,0,1.777-0.914,2.091-2.462   c0.558,0.051,1.131-0.161,1.438-0.509c0.206-0.235,0.298-0.525,0.26-0.815C34.027,67.726,33.147,66.321,31.861,65.902z"></path><path d="M60.19,69.26H49.114h-0.143H38.189c-0.216,1.488-0.881,6.622-0.673,11.956c0.01,0.275,0.186,0.515,0.445,0.609   c2.652,0.95,5.732,1.105,5.861,1.11c0.014,0.003,0.025,0.003,0.031,0.003c0.193,0,0.373-0.08,0.502-0.222   c0.135-0.148,0.195-0.351,0.168-0.548c-0.004-0.033-0.406-3.267,1.299-3.973c0.629-0.259,1.805-0.502,2.732-0.534   c1.557-0.021,2.643,0.144,4.07,0.729c1.709,0.706,1.305,3.941,1.301,3.975c-0.027,0.198,0.033,0.397,0.168,0.549   c0.129,0.141,0.309,0.219,0.5,0.219c0.01,0,0.021,0,0.033,0c0.129-0.007,3.207-0.163,5.859-1.116   c0.262-0.092,0.436-0.331,0.447-0.604c0.216-5.613-0.526-11.011-0.704-12.162C60.217,69.252,60.204,69.26,60.19,69.26z"></path><path d="M69.489,38.675c-1.007,0-1.775,0.914-2.089,2.461c-0.554-0.038-1.133,0.162-1.438,0.51   c-0.205,0.233-0.298,0.522-0.262,0.815c0.271,2.089,1.152,3.493,2.438,3.91c-0.892,4.397-2.747,7.358-3.941,8.896   c-0.129-0.201-0.243-0.369-0.349-0.521l-0.513,0.313c0.161,0.231,0.354,0.521,0.575,0.882l0.22,0.36l0.268-0.326   c1.226-1.493,3.425-4.747,4.384-9.767l0.056-0.292l-0.291-0.059c-1.175-0.237-1.995-1.503-2.25-3.474   c-0.015-0.119,0.026-0.241,0.117-0.344c0.217-0.247,0.756-0.376,1.153-0.272l0.321,0.084l0.051-0.328   c0.172-1.088,0.669-2.251,1.55-2.251c1.06,0,1.632,1.695,1.632,3.289c0,1.667-0.621,3.008-1.511,3.261l-0.181,0.051l-0.032,0.185   c-1.164,6.523-3.707,10.373-4.438,11.372c-0.231,0.251-0.471,0.373-0.73,0.373c-0.625,0-1.431-0.715-2.211-1.94l-0.51,0.312   c0.646,1.015,1.641,2.229,2.721,2.229c0.431,0,0.824-0.191,1.193-0.593c0.764-1.042,3.333-4.929,4.533-11.474   c1.063-0.433,1.765-1.915,1.765-3.775C71.721,40.691,71.022,38.675,69.489,38.675z"></path><g><path d="M57.895,43.932c-0.184,0.121-0.368,0.24-0.557,0.353c0.023,0.001,0.056,0.002,0.074,0.004l7.099,9.218    c0.065,0.083,0.09,0.187,0.069,0.295c-0.018,0.104-0.08,0.194-0.169,0.25l-5.412,3.305l1.562,11.175    c0.015,0.109-0.017,0.218-0.09,0.3c-0.069,0.081-0.174,0.129-0.28,0.129H37.896c-0.107,0-0.21-0.048-0.283-0.133    c-0.07-0.079-0.103-0.186-0.086-0.293l1.563-11.177l-5.411-3.307c-0.092-0.056-0.153-0.145-0.173-0.253    c-0.02-0.101,0.008-0.208,0.071-0.293l7.125-9.249c-0.172-0.104-0.341-0.212-0.509-0.322L33.1,53.142    c-0.168,0.222-0.235,0.501-0.185,0.767c0.051,0.273,0.216,0.513,0.451,0.655l5.074,3.101l-1.508,10.783    c-0.042,0.281,0.042,0.564,0.229,0.775c0.186,0.215,0.453,0.337,0.734,0.337H60.19c0.283,0,0.552-0.123,0.732-0.334    c0.185-0.209,0.27-0.49,0.232-0.775l-1.508-10.785l5.078-3.103c0.235-0.146,0.398-0.386,0.445-0.653    c0.051-0.272-0.018-0.554-0.187-0.77L57.895,43.932z"></path><path d="M49.044,46.912c-9.351,0-16.958-7.919-16.958-17.654c0-9.735,7.607-17.656,16.958-17.656    c9.348,0,16.952,7.92,16.952,17.656c0.001,4.706-1.762,9.135-4.965,12.473C57.825,45.072,53.568,46.912,49.044,46.912z     M49.044,12.202c-9.02,0-16.358,7.651-16.358,17.056c0,9.404,7.339,17.055,16.358,17.055c4.359,0,8.463-1.775,11.555-4.997    c3.095-3.225,4.799-7.507,4.798-12.058C65.396,19.853,58.061,12.202,49.044,12.202z"></path></g><g><g><g><g><circle fill="#000000" cx="56.312" cy="35.194" r="0.949"></circle></g></g></g></g><g><g><g><g><circle fill="#000000" cx="41.776" cy="35.194" r="0.949"></circle></g></g></g></g><g><g><g><path fill="#000000" d="M46.464,38.46c-0.072-0.127-0.045-0.306,0.061-0.393c0.104-0.09,0.215-0.036,0.318,0.073      c0.467,0.482,3.518,1.123,4.422-0.059c0.09-0.113,0.232-0.12,0.326-0.012c0.094,0.108,0.057,0.266,0.012,0.403      c-0.135,0.391-0.801,1.572-2.479,1.572C47.571,40.043,46.749,39.361,46.464,38.46z"></path></g></g></g><g><g><path d="M59.095,24.172c0,0-4.783,6.773-12.754,7.182c-7.973,0.409-14.246-3.329-14.246-3.329s-2.34-10.453,4.625-16.877     c6.969-6.424,13.084-5.999,16.527-5.61c3.662,0.414,8.031,3.273,9.037,6.9c0,0,4.369-0.88,5.137,4.667     c0.766,5.547-1.949,14.714-1.537,15.475c-2.006-0.584-4.604-4.022-5.076-4.724C60.337,27.156,59.095,24.172,59.095,24.172z"></path></g></g></g></svg>