<?xml version="1.0" encoding="UTF-8"?>
<svg width="100pt" height="100pt" version="1.1" viewBox="0 0 100 100" xmlns="http://www.w3.org/2000/svg">
 <path d="m2.1797 28.812c-1.2578 12.262-1.8555 23.195 0 34.188 0.070312 0.98047 0.5 1.375 1.2148 1.8438 2.6172 1.9297 5.9023 2.1602 9.0156 2.1562 0.89062 3.4375 4.0352 6 7.7344 6s6.8438-2.5625 7.7344-6c11.41 0 22.758 0.011719 34.438 0 0.89062 3.4375 4.0352 6 7.7344 6s6.8438-2.5625 7.7344-6h10.355c3.2031-0.33203 5.8164-2.9844 5.8633-5.875 0-9.0625 0.03125-15.387-0.75-20.531-0.625-4.1172-1.8438-7.4883-3.9297-10.594h2.7148c1.7109 0.30469 2.4883 1.4492 2.9648 2.9375v5.0625c-0.003906 1.0508 0.94922 2.0117 1.9961 2.0117s2-0.96094 1.9961-2.0117v-5c-0.09375-1.9805-2.0898-1.9805-2.4648-2-0.92969-1.6523-2.8281-2.9688-4.4922-3h-4.2109c-0.41406-0.64844-1.168-0.83984-1.7461-1-28.547 0.011719-57.527 0-81.973 0-1.0312 0.019531-1.8359 0.97656-1.9375 1.8125zm3.8672 2.1875c14.191 0 61.695 0.011719 78.98 0 2.3555 2.9922 3.6211 5.8867 4.2734 10.188 0.70312 4.6406 0.71875 10.875 0.71875 19.938-0.28516 1.1367-0.99219 1.5664-1.9961 1.875v-17c0-6.1094-1.0703-9.4023-3.1523-12.531-0.17969-0.28516-0.50781-0.46875-0.84375-0.46875h-4.9922c-0.52344 0-1 0.47656-1 1v20h-34.938v-5c0-0.52344-0.47656-1-1-1h-7.9844c-0.52344 0-1 0.47656-1 1v5h-26.949v2h26.949v5c0 0.52344 0.47656 1 1 1h7.9844c0.52344 0 1-0.47656 1-1v-5h34.938v7h-0.25c-0.90234-3.4297-4.0469-6-7.7344-6-3.6914 0-6.832 2.5703-7.7344 6-11.68 0.011719-23.027 0-34.438 0-0.90234-3.4297-4.0469-6-7.7344-6-3.6914 0-6.832 2.5703-7.7344 6-2.0859-0.28516-4.6523-0.17969-6.3633-1.25-1.2812-10.887-0.86328-21.773 0-30.75zm2.0273 2c-0.41406 0.042969-0.78516 0.37109-0.875 0.78125-1.0352 4.1523-1.0312 8.2188-1.0312 12.219 0 0.52344 0.47656 1 1 1h9.9805c0.52344 0 1-0.47656 1-1v-12c0-0.52344-0.47656-1-1-1h-9.0781zm11.977 0c-0.49219 0.046875-0.90625 0.50781-0.90625 1v12c0 0.52344 0.47656 1 1 1h9.9805c0.52344 0 1-0.47656 1-1v-12c0-0.52344-0.47656-1-1-1h-10.074zm12.977 0c-0.49219 0.046875-0.90625 0.50781-0.90625 1v12c0 0.52344 0.47656 1 1 1h9.9805c0.52344 0 1-0.47656 1-1v-12c0-0.52344-0.47656-1-1-1h-10.074zm12.977 0c-0.49219 0.046875-0.90625 0.50781-0.90625 1v12c0 0.52344 0.47656 1 1 1h9.9805c0.52344 0 1-0.47656 1-1v-12c0-0.52344-0.47656-1-1-1h-10.074zm12.977 0c-0.49219 0.046875-0.90625 0.50781-0.90625 1v12c0 0.52344 0.47656 1 1 1h16.969c0.52344 0 1-0.47656 1-1v-12c0-0.52344-0.47656-1-1-1h-17.062zm21.055 14h5.9883v16h-5.9883zm-44.918 3h5.9883v10h-5.9883z"/>
</svg>
